<svg width="90" height="60" viewBox="0 0 90 60" fill="none" xmlns="http://www.w3.org/2000/svg">
<g clip-path="url(#clip0_18_307)">
<path d="M25.2498 19.55C18.9692 30.2999 13.8029 39.2999 13.7016 39.5499C13.6003 39.7999 14.0561 39.9999 14.7146 39.9999C15.6769 39.9999 16.1834 39.4999 17.0445 37.6999L18.1588 35.4499L20.3367 36.5999C21.9575 37.4999 22.4134 38.0499 22.3627 38.8999C22.2614 39.6499 22.5147 39.9999 23.1225 39.9999C23.7303 39.9999 26.8706 35.0999 34.1135 22.6499C39.685 13.1 44.2942 5.00001 44.3955 4.70001C44.4968 4.40001 44.1929 4.00002 43.7877 3.85001C43.2305 3.65002 42.724 4.00002 42.2175 5.00001C41.8123 5.80001 41.2552 6.60001 40.9513 6.75C40.4448 7.05 36.3928 5.10001 36.3928 4.55001C36.3928 4.40001 36.8486 3.60002 37.4058 2.75002C38.1149 1.70002 38.2162 1.10003 37.811 0.650028C37.5071 0.30003 37.1525 3.05176e-05 36.9499 3.05176e-05C36.798 3.05176e-05 31.5304 8.8 25.2498 19.55ZM37.1019 8.55C38.1149 9.14999 38.9253 9.84999 38.9253 10.15C38.9253 11.05 37.0006 14 36.4434 14C35.8356 14 32.3408 12 32.3408 11.65C32.3408 11.05 34.5694 7.5 34.9239 7.5C35.1265 7.5 36.1395 7.95 37.1019 8.55ZM32.8979 15.6C34.0122 16.2 34.8733 16.9 34.8733 17.15C34.8733 18 32.7966 21 32.1888 21C31.4291 21 28.2888 19.15 28.2888 18.7C28.2888 18.25 30.4667 14.5 30.72 14.5C30.8213 14.5 31.8343 15 32.8979 15.6ZM30.568 23.9999C30.8213 24.3999 29.6563 26.8499 28.4914 28.4499C28.2381 28.7499 24.2368 26.3499 24.2368 25.8999C24.2368 25.6499 24.6926 24.5499 25.2498 23.4999L26.2628 21.4999L28.2888 22.4999C29.3524 23.0499 30.4161 23.6999 30.568 23.9999ZM24.9459 30.0499C25.9589 30.6499 26.7693 31.1999 26.7693 31.2499C26.7693 31.8999 24.5407 34.9999 24.0848 34.9999C23.4264 34.9999 20.1848 33.1499 20.1848 32.7499C20.1848 31.9499 22.0082 28.9999 22.5147 28.9999C22.8692 28.9999 23.9835 29.4499 24.9459 30.0499Z" fill="black"/>
<path d="M44.8008 13.05C41.9138 18.1 41.4073 19.2499 41.8631 20.1499C42.5722 21.6999 54.9308 28.5999 56.6023 28.3999C57.6153 28.2999 58.527 27.1499 61.3634 22.2999C64.7063 16.6 64.8582 16.3 63.9465 15.65C62.2751 14.45 49.1061 6.99999 48.7009 6.99999C48.4983 6.99999 46.7255 9.74998 44.8008 13.05Z" fill="black"/>
<path d="M68.0997 19.5999C66.0231 22.8999 56.6528 39.1999 56.6528 39.5999C56.6528 39.8499 58.9827 39.9499 61.8191 39.8999L66.9348 39.7499L71.6959 31.5999C76.0011 24.2999 76.8622 21.9999 75.4946 21.9999C75.2414 21.9999 74.6336 22.7999 74.0764 23.7499C73.5699 24.6999 73.0634 25.4999 72.9621 25.4999C72.3543 25.4999 68.8088 23.2499 68.8088 22.8999C68.8088 22.6499 69.1634 21.7999 69.5686 20.9499C70.7842 18.6499 69.5179 17.4499 68.0997 19.5999ZM69.5686 27.0499C70.5816 27.6499 71.2907 28.2499 71.24 28.4499C71.1387 28.5999 70.6322 29.5999 70.0751 30.5999C69.5686 31.6499 68.8595 32.4999 68.5556 32.4999C68.3023 32.4999 67.188 31.9499 66.175 31.2499L64.301 29.9999L65.4153 27.9999C66.6815 25.6999 67.0867 25.5999 69.5686 27.0499ZM65.3646 34.2499L67.2387 35.4999L66.1244 37.4999C65.5166 38.5999 64.8075 39.4999 64.6049 39.4999C63.9971 39.4999 60.1983 37.4999 60.1983 37.1999C60.1983 36.5499 62.5282 32.9999 62.9841 32.9999C63.288 32.9999 64.3516 33.5499 65.3646 34.2499Z" fill="black"/>
<path d="M37.3045 26.3499C36.5954 27.1999 29.3018 39.4499 29.3018 39.7999C29.3018 39.8999 34.2148 39.9999 40.1915 39.9999H51.0306L52.3475 37.7499C54.5255 34.1499 54.2216 33.7999 46.5228 29.3999C42.7747 27.2499 39.3305 25.4999 38.8746 25.4999C38.4188 25.4999 37.7097 25.8999 37.3045 26.3499Z" fill="black"/>
<path d="M11.0171 49.3498C8.78852 49.5998 8.73787 49.7998 8.94047 55.5998L9.09242 59.9998H10.6119C11.9795 59.9998 12.0808 59.8498 12.0808 58.0498C12.0808 56.3998 12.2834 56.0498 13.2457 55.8998C13.9548 55.7998 14.4107 55.3498 14.512 54.5998C14.6639 53.6998 14.4613 53.4998 13.3977 53.4998C11.5743 53.4998 11.6756 52.0998 13.499 51.8998C14.5626 51.7998 14.9172 51.4498 15.0185 50.3498C15.2211 48.8998 15.2717 48.8998 11.0171 49.3498Z" fill="black"/>
<path d="M57.8178 49.7498C53.4619 51.5498 54.7281 60.0498 59.3373 59.9998C62.2243 59.9498 63.7438 57.9998 63.7438 54.3498C63.7438 50.4998 61.0594 48.3998 57.8178 49.7498ZM60.6035 54.4498C60.7555 56.7998 59.9957 57.8498 58.8308 56.8998C58.1217 56.3498 57.9191 52.8998 58.5269 52.2998C59.4892 51.3498 60.4516 52.3498 60.6035 54.4498Z" fill="black"/>
<path d="M68.4542 49.3498C66.5801 49.5998 65.6178 51.3498 66.9853 52.0998C67.5931 52.4498 67.7957 53.3498 67.7957 56.2498C67.7957 59.8998 67.8464 59.9998 69.062 59.9998C70.2776 59.9998 70.3282 59.8998 70.3282 56.2498C70.3282 53.0498 70.4802 52.4498 71.3412 51.9998C71.949 51.6998 72.3542 50.9498 72.3542 50.2498C72.3542 48.9498 72.2023 48.8998 68.4542 49.3498Z" fill="black"/>
<path d="M76.8621 49.3498C74.6335 49.5998 74.5828 49.7998 74.7854 55.5998L74.9374 59.9998H77.6725C80.0024 59.9998 80.3569 59.8498 80.6608 58.8498C81.1167 57.0998 81.066 56.9998 79.4452 56.9998C78.6348 56.9998 77.9257 56.7498 77.9257 56.4998C77.9257 56.1998 78.4829 55.9998 79.1413 55.9998C80.2556 55.9998 80.9647 55.1998 80.9647 53.9498C80.9647 53.6998 80.3063 53.4998 79.4452 53.4998C78.4322 53.4998 77.9257 53.2498 77.9257 52.7498C77.9257 52.2998 78.3816 51.9998 79.1413 51.9998C80.3063 51.9998 80.9647 51.1998 80.9647 49.6998C80.9647 48.9998 80.6102 48.9498 76.8621 49.3498Z" fill="black"/>
<path d="M18.0574 50.0998C17.9561 50.4498 17.9561 52.8498 18.0574 55.3498L18.26 59.9998H19.7289H21.1977V54.7498V49.4998H19.7289C18.9185 49.4998 18.1587 49.7998 18.0574 50.0998Z" fill="black"/>
<path d="M24.1862 50.3498C24.0849 50.8498 24.0342 53.1998 24.1355 55.5998L24.2875 59.9998H26.5161C28.0356 59.9998 28.7953 59.7498 28.9979 59.1998C29.5551 57.7498 29.3018 56.9998 28.2888 56.9998C27.3771 56.9998 27.2758 56.6498 27.2758 53.2498V49.4998H25.807C24.8446 49.4998 24.2875 49.7998 24.1862 50.3498Z" fill="black"/>
<path d="M31.7331 50.7498C31.5811 51.4498 31.6824 52.1498 31.885 52.2998C32.1383 52.4498 32.3409 54.2498 32.3409 56.2998C32.3409 59.8998 32.3915 59.9998 33.6071 59.9998C34.8227 59.9998 34.8734 59.8498 34.8734 57.0998C34.924 54.4498 34.9747 54.2998 35.6838 55.2498C36.4435 56.2498 36.4435 56.2498 37.2033 55.2998C37.8617 54.3998 37.9124 54.5498 37.9124 57.1498C37.9124 59.9998 37.9124 59.9998 39.4319 59.9998H40.9514V54.7498V49.4998H39.4319C38.4695 49.4998 37.7604 49.8498 37.4059 50.4998C37.102 51.0498 36.6461 51.4998 36.3929 51.4998C36.1396 51.4998 35.7851 51.0498 35.6331 50.4998C35.3799 49.7498 34.8734 49.4998 33.6071 49.4998C32.2396 49.4998 31.9357 49.6998 31.7331 50.7498Z" fill="black"/>
<path d="M43.8888 50.7498C43.7369 51.4498 43.8382 52.1498 44.0408 52.2998C44.294 52.4498 44.4966 54.2498 44.4966 56.2998C44.4966 59.8998 44.5473 59.9998 45.7122 59.9998C46.8265 59.9998 46.9785 59.7498 47.1304 57.8498L47.2824 55.7498L48.4473 57.8498C49.3084 59.4998 49.8655 59.9998 50.8279 59.9998H52.0941V54.7498V49.4998H50.5746C49.1564 49.4998 49.0551 49.6498 49.0045 51.3498L48.9538 53.2498L48.1941 51.3498C47.485 49.7498 47.1811 49.4998 45.7629 49.4998C44.3953 49.4998 44.0408 49.6998 43.8888 50.7498Z" fill="black"/>
<path d="M0.481927 53.1998C0.127377 53.5998 -0.0752235 54.5498 0.0260765 55.3498C0.127376 56.4498 0.431277 56.7498 1.44428 56.7498C2.50793 56.7498 2.76118 56.4998 2.86248 55.0498C3.11573 52.7998 1.69753 51.7498 0.481927 53.1998Z" fill="black"/>
<path d="M87.2453 53.1998C87.0934 53.5998 87.0427 54.5498 87.144 55.3498C87.2453 56.4498 87.5492 56.7498 88.5622 56.7498C89.5752 56.7498 89.8791 56.4498 89.9804 55.3498C90.2337 53.0998 87.9544 51.3498 87.2453 53.1998Z" fill="black"/>
</g>
<defs>
<clipPath id="clip0_18_307">
<rect width="90" height="60" fill="white"/>
</clipPath>
</defs>
</svg>
